<svg xmlns="http://www.w3.org/2000/svg" version="1.1" xmlns:xlink="http://www.w3.org/1999/xlink" xmlns:svgjs="http://svgjs.com/svgjs" width="1440" height="560" preserveAspectRatio="none" viewBox="0 0 1440 560"><g mask="url(&quot;#SvgjsMask1000&quot;)" fill="none"><rect width="1440" height="560" x="0" y="0" fill="#1e3266"></rect><path d="M1512 560L0 560 L0 346.29Q26.92 253.21, 120 280.13Q163.26 251.39, 192 294.65Q266.41 297.06, 264 371.47Q256.28 291.75, 336 284.04Q406.19 234.24, 456 304.43Q516.8 293.23, 528 354.03Q557.42 263.44, 648 292.86Q696.92 269.78, 720 318.71Q737.08 263.79, 792 280.88Q858.5 227.38, 912 293.89Q986.7 248.59, 1032 323.29Q1062.82 282.11, 1104 312.92Q1150.46 287.38, 1176 333.84Q1223.19 309.03, 1248 356.23Q1264.75 300.98, 1320 317.73Q1388.27 266, 1440 334.27Q1462.02 284.29, 1512 306.31z" fill="#182f5d"></path><path d="M1488 560L0 560 L0 419.29Q9.08 356.37, 72 365.45Q145.27 318.72, 192 391.99Q247.38 375.38, 264 430.76Q291.66 386.42, 336 414.08Q340.64 346.72, 408 351.35Q449.12 320.47, 480 361.58Q534.14 343.73, 552 397.87Q610.18 384.05, 624 442.23Q648.26 394.5, 696 418.76Q728.83 331.59, 816 364.41Q888.39 316.81, 936 389.2Q990.98 324.18, 1056 379.16Q1137.43 340.6, 1176 422.03Q1226.43 352.46, 1296 402.9Q1373.81 360.71, 1416 438.52Q1427.18 377.7, 1488 388.89z" fill="#25467d"></path><path d="M1560 560L0 560 L0 440.53Q61.78 430.31, 72 492.09Q124.74 424.83, 192 477.57Q213.98 427.55, 264 449.53Q312.33 377.86, 384 426.18Q461.86 384.04, 504 461.9Q588.37 426.27, 624 510.64Q652.92 419.56, 744 448.48Q766.77 399.25, 816 422.02Q858.41 392.43, 888 434.84Q982.32 409.16, 1008 503.49Q1030.99 454.49, 1080 477.48Q1145.34 422.82, 1200 488.16Q1273.18 441.35, 1320 514.53Q1353.29 427.82, 1440 461.11Q1486.68 387.79, 1560 434.47z" fill="#356cb1"></path><path d="M1512 560L0 560 L0 540Q41.34 461.34, 120 502.67Q211.6 474.27, 240 565.87Q310.92 516.79, 360 587.7Q367.22 522.92, 432 530.15Q474.09 500.24, 504 542.32Q570.79 489.12, 624 555.91Q652.48 464.39, 744 492.87Q790.73 467.6, 816 514.33Q898.62 476.95, 936 559.57Q955.35 506.92, 1008 526.27Q1056.9 455.17, 1128 504.08Q1186.72 490.8, 1200 549.53Q1253.32 482.85, 1320 536.17Q1404.44 500.61, 1440 585.05Q1470.47 543.51, 1512 573.98z" fill="white"></path></g><defs><mask id="SvgjsMask1000"><rect width="1440" height="560" fill="#ffffff"></rect></mask></defs></svg>