<?xml version="1.0" standalone="no"?>
<!DOCTYPE svg PUBLIC "-//W3C//DTD SVG 20010904//EN"
 "http://www.w3.org/TR/2001/REC-SVG-20010904/DTD/svg10.dtd">
<svg version="1.0" xmlns="http://www.w3.org/2000/svg"
 width="1200.000000pt" height="1200.000000pt" viewBox="0 0 1200.000000 1200.000000"
 preserveAspectRatio="xMidYMid meet">

<g transform="translate(0.000000,1200.000000) scale(0.100000,-0.100000)"
fill="#000000" stroke="none">
<path d="M5725 9839 c-1117 -114 -2021 -926 -2246 -2017 -26 -129 -49 -327
-49 -429 0 -46 -4 -83 -9 -83 -5 0 -25 7 -46 16 -22 9 -41 12 -47 6 -5 -5 20
-72 61 -163 61 -136 72 -154 94 -157 33 -4 39 -23 41 -126 1 -96 24 -152 91
-221 36 -36 46 -55 54 -101 6 -31 22 -77 36 -102 19 -34 25 -59 25 -107 0 -34
6 -83 14 -109 10 -31 12 -72 9 -125 -4 -47 -1 -99 6 -127 8 -33 9 -49 2 -54
-17 -10 -34 -119 -28 -178 8 -73 47 -153 106 -215 28 -30 51 -57 51 -62 0 -4
-19 12 -43 36 -23 24 -57 56 -75 71 -22 18 -32 35 -32 55 0 15 -5 35 -10 43
-15 22 -26 0 -41 -78 -24 -129 2 -228 85 -321 25 -29 43 -57 40 -63 -4 -7 -11
-3 -17 8 -5 11 -34 45 -65 76 -45 46 -57 66 -61 99 -3 23 -11 44 -18 46 -20 7
-47 -104 -48 -192 0 -67 5 -90 28 -140 16 -33 38 -71 50 -84 12 -14 -3 -4 -33
22 -30 26 -59 46 -65 44 -10 -4 -10 -33 5 -227 5 -63 8 -115 7 -116 -1 -1
-105 36 -231 82 -258 93 -232 93 -280 -1 -20 -39 -26 -65 -26 -117 0 -80 11
-91 106 -109 32 -7 61 -13 63 -15 2 -2 -6 -30 -19 -64 -25 -68 -19 -66 -148
-50 l-82 11 -44 -30 c-67 -46 -71 -69 -27 -166 32 -70 25 -67 154 -80 59 -7
60 -8 48 -40 -7 -17 -28 -23 -132 -40 l-123 -20 -23 -70 c-27 -86 -30 -171 -5
-201 9 -12 32 -29 50 -38 17 -9 32 -18 32 -21 0 -2 -16 -62 -35 -132 -72 -266
-112 -540 -100 -681 25 -285 137 -461 361 -573 l83 -41 648 4 c676 3 725 1
1047 -43 247 -33 477 -84 695 -153 58 -19 174 -47 257 -62 l151 -27 149 27
c82 15 205 45 274 66 287 89 540 139 905 177 148 15 252 17 816 15 l646 -4 67
31 c190 86 304 220 358 420 17 61 21 106 21 231 1 176 -19 314 -80 547 -19 76
-37 148 -40 160 -4 16 2 25 27 38 41 21 64 75 56 129 -9 54 -45 176 -53 176
-24 0 -212 33 -229 40 -12 4 -24 17 -27 29 -6 23 5 26 113 37 l65 6 33 74 c20
45 31 82 27 94 -3 11 -25 36 -48 56 -46 39 -48 39 -217 18 l-46 -6 -18 53 c-9
30 -20 59 -22 65 -3 7 20 16 63 24 46 9 74 21 91 37 23 23 24 30 19 90 -5 46
-15 80 -37 119 -17 29 -35 56 -39 59 -5 2 -109 -31 -231 -76 -122 -44 -225
-78 -228 -74 -3 3 0 77 7 166 6 88 9 165 5 170 -4 6 -20 -3 -40 -22 l-33 -32
-7 29 c-8 37 -39 71 -70 78 -15 4 -24 14 -24 27 0 28 -37 97 -59 111 -18 11
-17 13 10 56 15 24 31 57 34 73 7 33 -15 86 -50 119 l-24 23 26 34 c19 25 26
46 27 83 1 47 4 53 87 143 74 81 88 102 103 156 22 78 11 113 -43 141 -32 16
-34 19 -16 25 28 9 86 40 156 84 l59 37 -49 64 -50 64 50 62 c27 34 49 64 49
67 0 2 -35 8 -77 11 -139 12 -140 13 -151 59 -22 87 -22 88 0 81 38 -12 107
76 122 157 3 19 2 59 -4 87 -5 29 -7 66 -3 82 4 25 10 30 34 30 15 0 31 6 36
13 18 28 133 290 133 303 0 20 -8 18 -88 -16 -39 -16 -73 -30 -75 -30 -2 0 -7
66 -10 148 -21 488 -186 966 -471 1362 -404 562 -1007 927 -1706 1035 -125 19
-468 28 -595 14z m500 -380 c381 -47 731 -188 1040 -418 131 -98 332 -300 429
-430 254 -343 395 -722 428 -1154 l12 -159 -23 -17 c-12 -10 -42 -28 -66 -41
l-43 -23 -108 44 -109 44 -6 120 c-33 640 -421 1225 -1004 1514 -249 124 -469
179 -746 188 -240 8 -408 -15 -624 -84 -456 -146 -841 -474 -1059 -903 -127
-249 -179 -451 -202 -780 l-5 -86 -72 -27 c-40 -15 -75 -27 -79 -27 -4 0 -49
26 -99 57 l-91 56 6 101 c38 561 267 1056 668 1442 461 444 1116 662 1753 583z
m-84 -359 c582 -59 1095 -393 1387 -904 98 -174 172 -380 206 -576 18 -107 33
-300 22 -300 -4 0 -23 7 -43 15 -19 8 -37 15 -38 15 -1 0 15 -55 36 -121 22
-67 39 -129 39 -138 0 -9 -11 -37 -25 -63 -29 -55 -31 -87 -9 -135 12 -23 29
-39 55 -50 38 -15 38 -15 24 -46 -8 -18 -16 -45 -20 -60 -4 -19 -11 -27 -20
-24 -24 10 -84 -13 -105 -41 -17 -21 -21 -37 -18 -72 3 -25 8 -52 12 -61 5
-12 1 -18 -17 -23 -27 -6 -47 -43 -47 -86 0 -27 -3 -30 -34 -30 -71 0 -129
-84 -106 -154 6 -19 18 -40 26 -47 13 -10 12 -15 -4 -33 -28 -30 -42 -61 -42
-90 0 -33 52 -92 95 -107 19 -7 31 -18 28 -24 -2 -7 23 -63 56 -125 34 -63 61
-114 61 -116 0 -1 -19 -5 -42 -9 -99 -16 -180 -71 -198 -134 -11 -42 2 -111
32 -161 l20 -35 -33 -99 c-19 -54 -38 -100 -44 -101 -5 -2 -32 -6 -58 -10
l-49 -6 100 -94 c72 -68 101 -103 106 -125 3 -18 15 -45 27 -62 l21 -29 -33 5
c-111 17 -129 17 -129 2 0 -8 32 -53 70 -100 39 -46 70 -88 70 -92 0 -5 -25
-34 -56 -65 l-56 -57 126 -42 126 -42 0 -59 c0 -32 1 -59 3 -59 2 0 62 20 135
44 l132 45 0 -64 c0 -56 3 -66 26 -84 14 -11 45 -23 70 -27 25 -3 44 -12 44
-19 0 -7 -11 -38 -25 -69 -17 -38 -25 -75 -25 -112 l0 -55 -87 -41 c-674 -312
-1641 -438 -2563 -332 -483 55 -884 159 -1260 328 l-105 47 3 58 c3 47 -2 72
-27 131 -17 39 -29 76 -26 80 3 4 26 11 51 15 30 4 56 16 72 32 22 22 24 30
18 79 -3 30 -3 54 0 54 6 0 226 -68 252 -77 9 -4 12 39 12 195 0 185 -1 200
-17 197 -10 -2 -53 -6 -96 -9 l-78 -5 38 28 c58 42 99 94 121 154 28 73 46
177 34 189 -7 7 -4 21 8 42 30 49 51 145 49 221 -1 46 5 86 16 115 23 59 33
219 15 230 -11 7 -10 19 3 67 25 87 19 253 -8 253 -6 0 -18 -21 -26 -47 -10
-36 -22 -52 -48 -67 l-33 -19 35 46 c55 72 72 128 72 232 -1 97 -19 179 -38
172 -7 -2 -13 -14 -15 -28 -6 -54 -14 -67 -64 -110 -45 -37 -49 -39 -26 -12
70 85 105 211 88 317 -22 139 -70 212 -70 108 0 -37 -5 -54 -21 -68 -39 -35
-93 -117 -110 -166 -10 -32 -18 -44 -22 -34 -3 8 7 39 23 68 106 189 128 267
108 373 -6 33 -11 89 -12 125 -1 54 -6 71 -28 100 l-27 36 45 139 c24 77 44
140 44 142 0 3 -10 -1 -99 -36 l-54 -22 6 123 c30 593 355 1130 872 1443 321
194 717 283 1096 245z m-2262 -1844 c47 -29 91 -56 98 -60 6 -3 77 21 157 53
80 33 146 57 146 53 0 -4 -15 -54 -33 -112 l-33 -105 -357 -3 c-349 -2 -357
-3 -357 -22 0 -11 -6 -20 -14 -20 -13 0 -131 248 -122 258 3 2 67 -21 142 -52
98 -40 140 -53 152 -47 10 5 39 32 67 60 27 28 53 51 59 51 5 0 48 -24 95 -54z
m4032 -28 l97 -40 97 61 c53 34 99 61 103 61 4 0 37 -27 74 -60 l67 -61 146
60 c80 33 145 58 145 57 0 -2 -26 -61 -58 -132 l-58 -129 -365 -3 -364 -2 -29
92 c-16 51 -35 112 -42 135 l-13 42 52 -20 c29 -11 95 -39 148 -61z m-4241
-213 c17 -50 -3 -86 -58 -105 -23 -8 -41 -19 -39 -25 2 -5 42 -15 90 -20 47
-6 89 -14 92 -17 4 -3 13 -36 22 -72 9 -42 29 -88 55 -126 22 -33 38 -64 36
-69 -2 -4 -37 8 -78 28 -59 28 -78 43 -89 69 -16 36 -41 43 -41 12 0 -28 -14
-25 -45 11 -53 63 -69 108 -71 194 0 44 -5 97 -9 118 l-7 37 65 0 65 0 12 -35z
m564 4 c52 -62 27 -134 -58 -167 l-56 -21 -152 19 c-83 11 -152 21 -153 22 -1
2 -10 18 -19 36 -21 40 -36 41 -36 2 0 -33 -10 -36 -81 -24 l-35 6 28 28 c29
30 35 61 18 104 l-10 26 264 0 264 0 26 -31z m3805 -9 l251 0 0 -32 c0 -21 9
-41 26 -59 l26 -27 -39 -6 c-100 -16 -377 -46 -420 -46 -70 1 -130 31 -149 75
-16 38 -12 63 14 104 14 21 17 21 27 7 11 -14 44 -16 264 -16z m409 -105 c3
-115 -9 -159 -55 -207 -30 -32 -45 -28 -94 24 -22 23 -45 38 -60 38 -17 1 -31
12 -50 44 l-27 43 124 13 c86 9 124 17 124 25 0 7 -12 16 -26 19 -36 9 -74 50
-74 81 0 24 2 25 68 25 l67 0 3 -105z m-4173 -150 c0 -52 -7 -98 -18 -132 -22
-64 -94 -176 -107 -168 -5 3 -17 31 -26 62 -35 120 7 267 91 324 36 25 41 26
50 11 5 -9 9 -53 10 -97z m-395 59 c74 -26 151 -101 173 -169 26 -85 30 -125
12 -125 -26 0 -133 58 -173 95 -48 43 -91 130 -99 198 -6 50 -5 51 13 36 10
-9 44 -25 74 -35z m4272 -1 c14 -16 31 -38 37 -50 7 -15 21 -23 36 -23 37 0
85 -57 85 -101 0 -15 -81 -64 -88 -53 -4 6 -20 32 -37 57 -16 26 -33 47 -36
47 -3 0 -16 -30 -29 -66 l-23 -66 -51 51 c-28 28 -55 51 -59 51 -4 0 -7 -33
-7 -72 0 -100 -6 -119 -36 -112 -12 3 -39 1 -58 -6 -29 -9 -40 -8 -73 8 -21
11 -57 25 -80 32 -54 16 -73 38 -80 88 -5 34 -1 45 21 67 23 23 34 26 76 23
l50 -3 0 43 c0 32 6 49 25 67 28 29 65 32 141 12 48 -13 53 -12 85 10 44 30
70 29 101 -4z m-4074 -2 c8 -5 2 -17 -23 -41 -19 -19 -35 -29 -35 -22 0 6 -24
28 -52 48 l-53 36 75 -7 c41 -4 81 -10 88 -14z m43 -48 l-20 -38 -1 32 c0 20
6 36 17 42 26 14 27 7 4 -36z m-51 -50 c0 -20 -3 -24 -11 -16 -7 7 -9 19 -6
27 10 24 17 19 17 -11z m17 -65 c-3 -7 -5 -2 -5 12 0 14 2 19 5 13 2 -7 2 -19
0 -25z m-312 -62 c107 -48 163 -122 173 -228 l5 -59 -29 11 c-87 33 -181 117
-211 188 -8 20 -19 61 -23 90 -6 47 -5 51 9 38 9 -7 43 -25 76 -40z m4409 10
c15 -25 30 -47 35 -50 5 -3 27 8 51 25 23 17 43 29 45 27 1 -2 9 -23 17 -48
l15 -45 89 -9 c49 -5 91 -10 93 -12 2 -2 -12 -23 -31 -46 -53 -66 -53 -65 -12
-116 21 -26 41 -52 46 -58 11 -15 -123 -97 -193 -118 -52 -15 -54 -15 -69 5
-74 100 -96 123 -137 141 -28 12 -58 18 -77 15 -56 -8 -56 -8 -56 155 l0 151
50 -47 c28 -26 54 -45 58 -42 5 3 17 30 27 60 11 31 20 56 21 56 1 0 14 -20
28 -44z m-3819 -131 c0 -94 -2 -104 -33 -163 -42 -80 -101 -147 -116 -132 -7
7 -11 52 -11 113 0 118 15 158 91 239 24 26 44 55 44 65 1 16 2 16 13 -2 7
-12 12 -59 12 -120z m-353 49 c79 -30 128 -107 144 -226 8 -57 3 -58 -65 -23
-74 37 -117 83 -125 132 -4 23 -23 67 -42 99 -46 76 -45 91 6 59 22 -14 59
-32 82 -41z m3779 -50 c56 -26 69 -28 102 -20 60 15 71 3 75 -87 3 -70 1 -76
-23 -95 -22 -18 -36 -20 -93 -16 -89 7 -146 -20 -181 -86 -13 -25 -37 -54 -54
-65 -18 -12 -36 -38 -46 -65 -13 -35 -21 -44 -37 -42 -30 6 -83 51 -90 77 -7
26 25 88 54 104 14 8 12 13 -11 41 -39 46 -37 98 5 140 28 29 37 32 75 27 l43
-4 -2 48 c0 28 5 56 13 65 19 23 92 14 170 -22z m-3941 -147 c62 -34 78 -55
95 -121 16 -62 20 -146 7 -146 -14 0 -83 54 -119 91 -42 44 -73 117 -80 186
l-6 56 29 -20 c16 -11 49 -32 74 -46z m267 -110 c18 -16 42 -50 53 -75 24 -49
40 -182 23 -182 -25 0 -138 87 -169 129 -50 69 -85 191 -54 191 6 0 10 7 10
15 0 18 90 -32 137 -78z m304 -86 c-16 -79 -46 -134 -109 -202 -66 -71 -72
-68 -72 46 0 103 20 146 108 239 l67 71 9 -49 c5 -31 4 -70 -3 -105z m3708
145 c33 -18 82 -71 113 -125 19 -34 28 -39 66 -44 89 -10 122 -67 87 -150
l-16 -38 -66 3 -66 3 -22 78 c-13 43 -25 80 -27 82 -2 2 -28 -12 -58 -30 -30
-19 -58 -35 -61 -35 -3 0 -14 17 -23 38 -9 20 -25 48 -35 61 l-18 23 -31 -48
c-63 -96 -57 -93 -101 -50 -21 21 -41 34 -44 29 -3 -4 -8 -34 -12 -65 l-7 -58
-119 0 -119 0 6 28 c14 60 42 109 65 116 16 4 32 22 46 54 32 68 69 87 161 85
64 -1 81 3 129 28 61 32 109 37 152 15z m-3954 -67 c11 -17 -1 -21 -15 -4 -8
9 -8 15 -2 15 6 0 14 -5 17 -11z m85 -59 c-22 -31 -40 -46 -40 -34 0 8 51 64
58 64 2 0 -6 -13 -18 -30z m-467 -34 c3 -7 29 -27 59 -43 29 -17 63 -42 75
-55 27 -28 52 -140 34 -146 -6 -2 -11 -17 -11 -32 0 -16 -4 -32 -10 -35 -16
-10 -108 84 -135 139 -26 55 -46 186 -27 186 5 0 12 -6 15 -14z m4246 -81 c21
-36 36 -53 44 -49 7 4 31 21 55 37 24 16 45 27 46 25 2 -1 11 -34 21 -71 10
-37 23 -71 28 -74 5 -3 34 -9 62 -12 l53 -6 -63 -70 -64 -70 -33 31 c-45 43
-69 54 -118 54 -45 0 -72 -11 -107 -43 l-22 -20 -36 32 c-30 26 -44 31 -86 31
-56 0 -80 -10 -121 -48 -15 -14 -29 -24 -31 -21 -2 2 -22 39 -45 82 l-41 77
124 0 124 0 7 50 c4 28 10 50 14 50 3 0 17 -11 30 -25 13 -14 27 -25 31 -25 5
0 27 27 49 60 22 33 42 60 44 60 2 0 18 -25 35 -55z m-4007 -21 c47 -24 117
-94 141 -139 23 -46 38 -205 19 -205 -18 0 -114 83 -149 128 -18 24 -39 66
-48 94 -17 60 -21 184 -4 155 5 -9 24 -24 41 -33z m413 -140 c-4 -39 -18 -87
-36 -123 -28 -57 -101 -135 -148 -161 l-24 -12 5 88 c5 107 27 155 94 211 25
21 58 49 73 63 35 34 45 16 36 -66z m-233 42 c10 -15 10 -56 0 -56 -7 0 -28
36 -50 83 -6 12 41 -13 50 -27z m-383 -50 c6 -4 11 -12 11 -17 0 -21 -38 12
-49 42 -16 45 -14 48 8 13 11 -18 24 -35 30 -38z m51 -95 c37 -32 51 -52 55
-80 3 -20 13 -64 22 -99 11 -45 12 -67 5 -74 -7 -7 -13 1 -17 28 -13 76 -20
80 -41 21 l-11 -32 -42 43 c-65 67 -84 114 -89 214 l-4 87 36 -32 c21 -18 59
-52 86 -76z m388 69 c-7 -10 -14 -17 -17 -15 -4 4 18 35 25 35 2 0 -1 -9 -8
-20z m-271 -42 c-3 -7 -5 -2 -5 12 0 14 2 19 5 13 2 -7 2 -19 0 -25z m3869 -3
c24 -10 39 -25 50 -51 l15 -36 35 41 c22 25 50 45 74 52 76 23 170 -51 170
-135 0 -27 -9 -45 -36 -75 l-35 -40 25 -16 c35 -23 66 -76 66 -111 0 -16 -11
-47 -24 -69 -24 -40 -25 -40 -88 -40 -39 0 -75 -6 -95 -17 -18 -9 -33 -12 -33
-7 0 6 18 66 41 136 23 71 37 129 32 134 -5 5 -56 -20 -118 -57 l-108 -65 -52
57 -51 58 -74 -102 c-41 -56 -78 -102 -82 -102 -5 0 -27 9 -49 21 -81 41 -115
184 -59 245 24 25 99 57 163 68 30 6 41 14 58 47 14 29 32 46 62 60 51 23 67
23 113 4z m-3935 -22 c13 -16 12 -17 -3 -4 -10 7 -18 15 -18 17 0 8 8 3 21
-13z m155 -100 c40 -39 57 -64 68 -104 18 -61 22 -189 5 -189 -6 0 -40 28 -75
62 -89 85 -117 145 -122 261 l-5 90 38 -34 c21 -19 61 -57 91 -86z m329 15
c-7 -24 -40 -58 -57 -58 -9 0 50 76 60 79 2 1 0 -9 -3 -21z m-245 -33 c43 -27
47 -37 26 -74 l-13 -24 -12 36 c-7 20 -21 47 -32 61 -26 32 -19 33 31 1z m259
-70 c-8 -80 -47 -161 -98 -208 -42 -38 -129 -92 -137 -85 -8 8 23 164 39 195
20 38 90 101 131 118 18 8 38 21 46 29 22 28 26 18 19 -49z m-563 -116 c16
-31 41 -205 31 -216 -12 -11 -19 4 -24 52 -7 55 -28 60 -38 9 l-6 -36 -28 27
c-65 62 -107 181 -96 271 l6 51 70 -66 c39 -36 77 -78 85 -92z m128 -25 c66
-65 99 -122 111 -192 9 -55 -3 -152 -18 -152 -21 0 -115 110 -143 166 -21 42
-29 76 -32 134 -4 77 5 151 15 120 3 -8 33 -43 67 -76z m4036 69 c0 -5 -18
-63 -41 -130 -40 -122 -41 -123 -67 -115 -15 4 -57 7 -94 7 -58 0 -72 -4 -110
-30 -23 -17 -59 -54 -78 -82 -19 -27 -51 -62 -70 -77 -19 -14 -44 -39 -54 -55
l-20 -29 -74 67 -74 66 38 11 c37 10 39 14 72 105 18 51 35 95 37 98 3 2 20
-8 39 -23 19 -14 38 -26 43 -26 4 0 42 48 83 106 l74 106 49 -51 c27 -28 51
-51 55 -51 4 1 45 25 92 55 86 54 100 61 100 48z m-3999 -56 c12 -22 12 -22
-10 -3 -11 11 -21 23 -21 28 0 14 19 -1 31 -25z m97 -85 c37 -28 39 -41 12
-73 -15 -18 -19 -20 -20 -8 0 9 -11 37 -25 63 -36 67 -34 68 33 18z m-420 -57
c23 -20 54 -58 70 -83 24 -42 27 -56 27 -144 0 -53 -3 -100 -8 -104 -14 -14
-107 90 -139 154 -26 53 -31 75 -31 135 0 40 3 83 8 96 7 24 7 24 19 3 6 -11
30 -37 54 -57z m672 65 c0 -14 -37 -50 -52 -50 -6 0 1 14 17 30 31 33 35 35
35 20z m5 -104 c-24 -114 -81 -184 -194 -241 -81 -41 -82 -40 -49 79 27 100
73 152 167 186 33 13 66 29 72 37 19 22 19 12 4 -61z m3757 14 c47 -14 96 -69
104 -120 6 -34 11 -41 40 -50 39 -13 54 -35 54 -79 0 -26 -7 -34 -40 -51 l-40
-20 0 30 c0 16 -2 30 -4 30 -2 0 -46 -22 -97 -50 -52 -27 -97 -50 -100 -50 -4
0 -21 32 -38 71 l-32 72 -60 -87 -61 -87 -36 23 c-21 12 -45 27 -54 32 -15 9
-28 1 -76 -47 -68 -67 -102 -74 -144 -29 -63 65 -57 106 30 192 31 31 72 76
91 99 48 61 85 81 151 81 30 0 72 -5 92 -10 32 -9 42 -8 66 10 24 17 93 48
112 50 3 0 22 -5 42 -10z m-4282 -43 c0 -7 25 -37 54 -66 77 -76 101 -134 101
-241 0 -47 -5 -93 -11 -103 -10 -17 -16 -13 -62 37 -90 100 -124 206 -108 340
4 31 12 54 17 51 5 -4 9 -12 9 -18z m110 -71 c0 -5 -9 -1 -20 9 -11 10 -20 25
-20 34 0 12 6 9 20 -9 11 -14 20 -29 20 -34z m78 -76 l44 -39 -23 -32 -23 -32
-9 24 c-5 13 -17 43 -28 67 -30 67 -23 69 39 12z m276 -12 c-15 -28 -38 -48
-53 -48 -9 0 -2 11 19 30 39 33 44 35 34 18z m-469 -249 l130 -126 155 13 c85
7 165 13 178 13 22 1 22 1 22 -170 0 -133 -3 -170 -12 -167 -7 3 -65 22 -128
43 -98 32 -149 58 -346 176 l-231 139 -7 103 c-4 56 -9 129 -13 162 l-5 60 63
-60 c35 -33 123 -117 194 -186z m474 170 c-23 -99 -64 -162 -142 -214 -47 -32
-150 -65 -163 -53 -8 9 43 146 66 176 33 42 96 80 156 93 30 7 62 18 72 25 9
8 18 14 18 14 1 0 -2 -18 -7 -41z m4087 -61 c-3 -57 -9 -128 -12 -160 l-6 -56
-232 -140 c-206 -125 -244 -144 -347 -176 -63 -20 -121 -36 -127 -36 -9 0 -12
45 -12 165 l0 165 28 0 c15 0 95 -5 179 -11 l152 -12 188 181 c103 100 190
182 192 182 2 0 1 -46 -3 -102z m-402 2 l28 -61 94 51 c52 27 97 50 99 50 3 0
5 -17 5 -38 0 -35 -7 -45 -107 -138 l-108 -99 -150 11 c-82 7 -165 13 -182 13
l-33 1 0 -125 c0 -69 -4 -125 -9 -125 -23 0 -193 68 -183 74 5 3 28 28 51 54
l40 49 -69 83 c-38 46 -68 85 -67 86 1 0 52 -4 112 -11 l110 -12 61 59 61 59
48 -30 c27 -17 52 -31 56 -31 5 0 29 31 56 70 26 38 51 70 54 70 4 0 18 -27
33 -60z m-3951 -6 c-16 -43 -18 -46 -21 -22 -3 22 26 82 35 74 2 -2 -5 -25
-14 -52z m-189 -36 c-7 -11 -54 -10 -54 1 0 5 5 22 11 37 l10 28 19 -29 c10
-16 17 -32 14 -37z m-497 -82 c215 -78 243 -91 419 -196 247 -148 274 -167
274 -190 0 -26 -1 -26 -54 10 -63 43 -154 83 -271 118 -153 47 -245 63 -420
71 -181 9 -230 23 -241 66 -11 43 3 110 33 159 15 25 28 46 29 46 0 0 104 -38
231 -84z m618 -64 c-3 -9 -26 4 -70 43 -36 32 -65 61 -65 65 0 5 8 10 18 12
21 5 125 -101 117 -120z m4915 71 c25 -40 30 -59 30 -110 0 -54 -3 -64 -22
-77 -36 -22 -121 -36 -226 -36 -222 0 -533 -85 -685 -187 -27 -18 -52 -32 -54
-30 -2 2 1 15 6 29 6 17 73 63 232 158 215 129 233 138 449 217 124 45 228 82
232 83 5 0 21 -21 38 -47z m-5337 -244 c190 -38 388 -115 462 -181 46 -40 46
-78 0 -91 -26 -7 -46 0 -145 51 -150 79 -228 102 -339 102 -47 0 -143 3 -212
7 l-127 6 20 59 c13 39 28 63 42 69 29 13 182 1 299 -22z m5214 -63 c16 -42
19 -62 12 -67 -6 -4 -104 -10 -218 -13 -134 -5 -225 -13 -261 -22 -30 -9 -112
-45 -181 -81 -120 -62 -128 -65 -155 -52 -60 29 -35 75 74 136 163 91 447 164
626 160 l80 -2 23 -59z m-5509 -66 l193 -14 44 -60 44 -61 -127 -12 c-69 -7
-165 -24 -213 -37 -82 -24 -94 -25 -176 -15 -48 6 -88 12 -89 12 0 1 -13 30
-28 64 -30 69 -27 85 21 123 23 18 37 21 83 17 30 -2 142 -10 248 -17z m5795
-25 c50 -35 55 -61 22 -133 l-27 -60 -86 -8 c-71 -5 -101 -3 -172 15 -105 26
-205 41 -288 41 l-63 0 31 43 c69 95 45 85 240 98 96 6 200 14 230 18 30 5 60
9 65 10 6 0 27 -10 48 -24z m-5339 -19 c38 -15 105 -45 149 -69 74 -39 78 -43
55 -51 l-25 -9 33 -77 c47 -107 45 -122 -9 -73 -52 48 -145 101 -252 144 -96
38 -92 34 -144 109 l-42 59 83 -3 c59 -3 103 -12 152 -30z m4777 -13 c-6 -10
-27 -40 -48 -67 -32 -41 -51 -54 -119 -81 -122 -49 -204 -95 -256 -146 -59
-56 -62 -41 -13 67 36 79 36 89 0 96 -14 2 9 18 75 52 139 72 211 96 298 96
66 0 72 -2 63 -17z m-4836 -143 c156 -64 246 -122 285 -185 25 -41 22 -51 -24
-59 -27 -5 -48 0 -93 22 -32 16 -102 46 -156 66 -93 35 -107 37 -327 53 -224
16 -230 17 -224 37 3 12 11 27 18 33 26 28 229 66 387 72 21 0 75 -15 134 -39z
m5030 -10 c106 -20 167 -42 178 -67 6 -13 7 -26 3 -30 -3 -4 -107 -14 -229
-24 -241 -18 -305 -34 -469 -114 -61 -30 -72 -32 -107 -23 l-40 10 19 38 c32
62 122 124 284 192 91 39 91 39 196 34 58 -3 132 -10 165 -16z m-5357 -114
c89 -7 164 -15 167 -18 3 -2 8 -27 12 -54 7 -58 26 -90 66 -114 l29 -18 -49
-10 c-26 -6 -166 -34 -310 -63 l-261 -53 -56 17 c-31 10 -68 29 -84 42 -24 21
-27 30 -26 82 1 32 10 83 20 113 l19 55 100 16 c123 21 167 21 373 5z m360
-62 c134 -49 166 -63 159 -70 -13 -14 -201 -53 -228 -47 -51 10 -86 55 -91
113 -2 42 0 50 15 50 9 0 75 -21 145 -46z m5343 29 l99 -16 20 -65 c11 -35 20
-84 20 -109 0 -37 -5 -50 -31 -74 -17 -16 -54 -36 -82 -45 -52 -15 -53 -15
-363 48 -309 62 -311 63 -283 80 40 25 63 65 69 122 l5 51 135 11 c201 16 300
16 411 -3z m-576 -60 c-9 -62 -19 -79 -55 -98 -40 -21 -90 -18 -190 9 -80 22
-83 23 -60 36 42 23 264 99 289 99 22 1 23 -1 16 -46z m-771 -688 l7 -30 -198
-49 c-109 -27 -208 -55 -220 -62 -17 -10 -23 -24 -22 -47 1 -47 23 -102 43
-105 10 -2 100 17 202 43 101 25 196 45 211 43 26 -3 28 -8 64 -150 20 -80 33
-152 29 -158 -5 -9 -568 -158 -601 -160 -8 0 -32 91 -25 97 2 3 91 27 197 53
105 27 196 54 200 62 5 7 9 30 9 50 0 29 -6 41 -25 54 -24 16 -33 14 -193 -25
-92 -23 -174 -44 -183 -46 -33 -11 -50 20 -85 159 -19 76 -32 146 -29 156 4
14 66 33 303 92 199 50 299 71 303 64 4 -6 10 -25 13 -41z m-2908 -45 c330
-127 314 -120 314 -140 0 -24 -188 -512 -203 -527 -9 -8 -79 14 -289 95 -153
59 -280 112 -282 118 -2 5 38 120 90 255 111 291 111 289 124 289 6 0 116 -41
246 -90z m1927 -382 c16 -165 24 -304 20 -308 -4 -4 -45 -10 -90 -14 -75 -6
-83 -5 -83 11 0 10 -11 137 -25 283 -14 146 -25 277 -25 292 0 29 0 29 141 36
l35 2 27 -302z m-633 212 l0 -40 -215 0 c-202 0 -216 -1 -235 -20 -15 -15 -20
-33 -20 -69 0 -81 1 -81 231 -81 119 0 208 -4 220 -10 17 -10 19 -23 19 -158
0 -102 -4 -152 -12 -160 -9 -9 -94 -12 -321 -12 l-308 0 3 53 3 52 204 3 c124
1 209 7 217 13 22 18 27 68 10 94 l-16 25 -190 0 c-244 0 -230 -11 -230 176 0
74 5 144 10 155 10 18 24 19 320 19 l310 0 0 -40z"/>
<path d="M5295 8629 c-114 -9 -109 -6 -154 -114 -95 -227 -119 -441 -77 -667
l13 -67 -69 -68 c-168 -166 -272 -361 -322 -603 l-15 -75 57 -51 57 -52 -45 4
c-147 12 -210 12 -210 0 0 -17 228 -1087 233 -1092 2 -2 127 -47 278 -100 151
-53 275 -97 276 -98 1 -1 -18 -82 -43 -180 -25 -99 -41 -182 -37 -186 9 -8
534 -143 537 -138 21 31 70 88 73 84 3 -2 -21 -35 -52 -72 -32 -37 -73 -100
-92 -140 -33 -70 -34 -75 -24 -126 14 -65 51 -129 93 -162 l32 -25 -69 18
c-167 44 -254 53 -537 58 l-276 5 -12 -23 c-7 -12 -72 -170 -145 -350 l-132
-328 46 -77 46 -77 300 -2 c299 -2 408 -11 657 -55 l66 -12 36 -58 c20 -32 50
-70 67 -84 29 -25 35 -26 164 -26 l134 0 37 32 c20 17 49 56 66 85 16 29 31
53 31 53 1 0 76 11 167 25 258 38 413 48 645 43 l210 -6 47 79 47 79 -135 338
c-75 185 -141 343 -147 351 -9 11 -62 12 -287 8 -278 -4 -380 -16 -547 -61
l-53 -14 44 44 c48 48 76 113 76 179 0 55 -44 142 -115 227 -30 36 -55 76 -55
88 0 18 11 8 50 -43 l51 -65 265 68 c146 38 268 71 271 74 3 3 -14 86 -39 183
-25 98 -45 179 -44 180 2 2 126 46 277 99 151 53 276 98 277 100 2 1 56 250
121 553 l117 551 -139 -7 -139 -6 57 55 57 54 -16 77 c-23 111 -61 218 -112
318 -56 108 -104 174 -200 270 l-75 76 15 83 c20 104 20 294 1 397 -18 93 -52
198 -96 293 l-31 67 -60 7 c-109 11 -294 6 -378 -10 -101 -19 -213 -59 -315
-112 l-77 -40 -73 39 c-195 106 -408 147 -650 128z m306 -34 c46 -8 113 -24
149 -35 75 -24 250 -109 250 -121 0 -11 -217 -589 -228 -609 -8 -12 -67 -18
-337 -30 -180 -8 -329 -12 -331 -8 -3 4 -11 42 -19 84 -19 98 -19 271 0 371
17 86 64 233 98 303 20 41 26 45 67 51 88 12 269 9 351 -6z m1222 0 c20 -8 81
-154 114 -275 24 -85 26 -113 26 -260 0 -105 -6 -184 -14 -219 l-14 -54 -90 3
c-49 1 -200 7 -334 13 l-244 12 -101 270 c-56 149 -109 289 -119 312 l-17 42
65 37 c86 47 232 99 325 114 41 6 82 13 90 15 23 6 294 -3 313 -10z m-689
-492 c58 -155 106 -287 106 -294 0 -13 -212 -308 -222 -309 -11 0 -222 294
-222 310 0 26 218 590 225 583 4 -5 55 -135 113 -290z m-254 -460 c58 -80 106
-151 108 -158 2 -7 -70 -34 -178 -69 l-181 -57 -251 200 c-138 111 -247 201
-242 202 41 4 506 26 564 27 l75 1 105 -146z m743 133 c147 -7 270 -15 272
-18 5 -5 -468 -386 -488 -394 -15 -5 -358 109 -359 120 0 4 48 75 107 157
l108 149 46 0 c25 -1 167 -7 314 -14z m-1269 -227 c138 -110 252 -205 254
-209 3 -9 -165 -630 -173 -638 -10 -10 -180 20 -259 45 -147 46 -305 139 -425
250 l-53 48 12 60 c33 163 107 335 196 455 55 75 167 190 184 190 7 0 126 -90
264 -201z m1679 121 c88 -93 154 -189 202 -293 38 -83 83 -229 92 -298 l5 -45
-78 -65 c-142 -117 -246 -177 -391 -222 -98 -32 -249 -55 -262 -42 -5 6 -41
129 -81 275 -39 146 -77 286 -85 312 l-14 47 255 206 c141 113 262 205 269
205 7 0 47 -36 88 -80z m-1025 -412 l-3 -191 -265 -174 c-145 -96 -266 -171
-267 -166 -1 4 35 143 81 307 l82 300 170 57 c93 32 177 58 187 58 16 1 17
-13 15 -191z m212 136 c96 -31 176 -57 177 -58 5 -5 169 -616 165 -616 -2 0
-123 78 -268 173 l-263 172 -1 193 c0 105 3 192 7 192 4 0 86 -25 183 -56z
m83 -534 c147 -96 267 -180 267 -185 0 -20 -81 -169 -128 -234 -87 -123 -219
-239 -359 -317 -43 -25 -69 -33 -84 -29 -11 4 -67 38 -122 75 -157 105 -294
256 -371 408 -56 110 -80 79 227 282 149 99 279 179 288 177 8 -1 135 -81 282
-177z m877 8 c-2 -22 -141 -532 -147 -538 -4 -4 -165 -71 -358 -149 -343 -140
-351 -144 -399 -194 -26 -29 -63 -74 -82 -102 -31 -45 -34 -57 -35 -125 -1
-51 -6 -17 -15 105 -19 278 -23 254 43 295 31 19 100 78 153 130 101 99 176
204 226 314 l29 64 85 12 c160 23 346 91 450 164 31 22 50 31 50 24z m-2144
-93 c93 -44 180 -70 279 -85 44 -7 89 -14 100 -16 14 -2 34 -32 66 -97 84
-167 208 -310 356 -410 l63 -42 -6 -120 c-4 -66 -9 -123 -13 -127 -3 -4 -32
26 -64 67 -32 41 -68 81 -80 89 -12 8 -177 78 -367 156 -190 78 -349 145 -353
149 -8 8 -137 493 -137 514 0 5 19 -4 43 -18 23 -15 74 -42 113 -60z m1034
-1196 l0 -250 -52 3 c-53 3 -53 3 -52 36 0 17 1 129 2 247 l2 215 50 0 50 0 0
-251z m-31 -727 c34 -68 35 -101 2 -156 l-29 -49 -27 54 c-26 49 -27 58 -16
97 10 39 37 92 47 92 2 0 12 -17 23 -38z m-504 -117 c125 -19 298 -65 390
-103 l70 -29 3 -292 c2 -277 1 -292 -16 -287 -40 13 -206 47 -298 60 -241 37
-606 43 -926 18 -49 -4 -88 -5 -88 -1 0 3 58 149 129 325 l128 319 34 7 c59
12 467 0 574 -17z m1530 17 l40 -7 128 -319 c71 -175 126 -320 123 -323 -2 -3
-110 0 -238 7 -254 14 -498 8 -693 -16 -114 -14 -343 -56 -379 -70 -15 -6 -16
17 -14 286 l3 293 70 28 c149 59 328 101 509 118 103 10 399 12 451 3z m-1502
-677 c118 -13 201 -27 446 -79 7 -1 57 8 110 21 206 50 348 65 661 70 257 4
563 -6 577 -20 2 -3 -13 -32 -34 -66 -37 -60 -38 -61 -73 -54 -66 14 -449 7
-600 -11 -224 -26 -384 -54 -389 -67 -10 -30 -90 -135 -112 -146 -31 -16 -229
-17 -264 -1 -14 6 -47 43 -72 82 -26 39 -48 72 -49 74 -4 6 -237 42 -382 58
-153 18 -500 24 -587 12 l-50 -8 -37 62 c-20 34 -35 64 -33 66 22 23 690 28
888 7z"/>
<path d="M4651 3227 c-18 -22 -133 -328 -127 -342 4 -12 197 -92 247 -102 26
-5 28 -1 87 148 75 195 75 194 60 207 -11 8 -242 102 -253 102 -1 0 -8 -6 -14
-13z"/>
</g>
</svg>
