<?xml version="1.0" standalone="no"?>
<!DOCTYPE svg PUBLIC "-//W3C//DTD SVG 20010904//EN"
 "http://www.w3.org/TR/2001/REC-SVG-20010904/DTD/svg10.dtd">
<svg version="1.0" xmlns="http://www.w3.org/2000/svg"
 width="405.000000pt" height="405.000000pt" viewBox="0 0 405.000000 405.000000"
 preserveAspectRatio="xMidYMid meet">

<g transform="translate(0.000000,405.000000) scale(0.100000,-0.100000)"
fill="#000000" stroke="none">
<path d="M1780 4039 c-686 -88 -1273 -514 -1574 -1141 -89 -184 -140 -345
-178 -558 -18 -102 -18 -518 0 -620 38 -213 89 -374 178 -558 278 -579 801
-990 1424 -1116 245 -50 555 -50 800 0 623 126 1146 537 1424 1116 71 147 103
235 140 384 45 183 51 238 51 484 0 246 -6 301 -51 484 -37 149 -69 237 -140
384 -104 218 -229 396 -395 561 -322 322 -736 524 -1189 580 -97 13 -394 12
-490 0z m258 -271 c28 -28 1 -75 -37 -63 -11 3 -23 15 -26 26 -12 38 35 65 63
37z m-539 -184 c-19 -37 -55 -90 -82 -118 -27 -29 -41 -39 -31 -24 15 26 15
28 -1 34 -12 5 -25 -2 -41 -22 -25 -29 -25 -29 -18 -4 10 40 39 82 91 131 60
57 107 90 111 79 2 -5 -11 -40 -29 -76z m521 -464 c0 -360 -3 -550 -10 -550
-7 0 -10 190 -10 550 0 360 3 550 10 550 7 0 10 -190 10 -550z m-826 359 c-22
-76 -79 -181 -116 -215 l-32 -29 18 28 c17 28 16 57 -3 57 -5 0 -22 -19 -36
-42 l-27 -43 6 38 c8 63 46 124 123 198 41 40 76 70 78 67 3 -3 -2 -29 -11
-59z m611 51 c-21 -33 -227 -119 -258 -107 -7 4 -6 6 4 6 9 1 22 8 29 16 18
21 -11 30 -51 16 -28 -10 -30 -9 -18 5 20 24 69 47 129 60 68 15 174 18 165 4z
m1045 -65 c24 -41 50 -75 56 -75 7 0 24 14 37 30 14 17 28 30 31 30 3 0 6 -31
6 -70 0 -52 -4 -72 -16 -82 -29 -23 -78 -74 -94 -98 -13 -19 -27 -23 -90 -27
l-75 -5 44 39 c54 48 48 63 -22 63 -29 0 -62 3 -74 6 -21 6 -22 8 -8 35 21 40
19 71 -9 111 l-24 36 55 4 c46 4 60 10 91 41 20 21 39 37 42 37 3 0 26 -34 50
-75z m-662 -210 c41 -55 94 -120 117 -145 41 -43 43 -49 50 -122 8 -90 7 -90
-70 -54 -48 22 -99 70 -158 147 -14 19 -38 41 -52 49 -25 13 -25 14 -25 149
l0 135 31 -30 c17 -16 65 -74 107 -129z m-518 82 l45 -14 -30 -12 c-97 -40
-243 -51 -292 -22 -15 9 -11 10 25 11 35 0 42 3 42 20 0 16 -7 20 -32 21 l-33
1 30 9 c42 11 191 3 245 -14z m-783 -104 c-8 -96 -23 -164 -54 -234 -26 -57
-46 -74 -31 -25 13 42 4 74 -16 57 -8 -7 -17 -27 -20 -46 -4 -19 -12 -37 -18
-41 -22 -14 -3 138 24 198 27 58 104 178 115 178 3 0 3 -39 0 -87z m2313 37
c24 -24 27 -87 6 -116 -13 -17 -28 -19 -118 -20 -84 0 -102 -3 -99 -15 2 -8
11 -34 19 -58 14 -41 14 -47 -4 -80 -23 -43 -46 -49 -73 -22 -25 25 -27 63 -4
101 15 27 15 30 0 54 -25 37 -21 82 8 111 28 29 70 32 97 8 17 -16 20 -14 52
20 39 43 84 49 116 17z m-1826 -89 c15 -6 10 -11 -32 -29 -104 -45 -216 -63
-267 -43 -16 7 -12 10 23 16 33 5 42 11 40 23 -3 13 -13 16 -38 15 l-35 -2 40
14 c43 14 236 19 269 6z m1942 -57 c4 -14 4 -55 1 -90 -4 -35 -2 -66 3 -69 5
-3 27 10 48 30 22 19 42 35 46 35 20 0 -48 -153 -80 -181 -11 -9 -32 -19 -48
-23 -16 -4 -41 -16 -54 -27 -17 -13 -40 -19 -74 -19 l-49 0 20 26 c26 33 13
54 -33 54 -32 0 -104 15 -112 23 -2 2 11 20 30 40 38 41 53 97 37 140 l-11 27
68 0 c54 0 79 6 127 29 75 37 73 36 81 5z m-2659 -289 c4 -68 1 -106 -11 -155
-22 -86 -36 -99 -33 -30 2 45 -1 55 -15 58 -15 3 -18 -4 -18 -47 0 -64 -13
-72 -34 -21 -31 79 -14 200 46 329 l31 66 14 -55 c7 -30 16 -95 20 -145z m448
150 c-54 -47 -144 -93 -199 -104 -54 -10 -68 -2 -26 15 16 7 30 21 30 30 0 13
-6 15 -32 10 -35 -6 -29 0 25 30 38 21 164 53 207 53 l35 0 -40 -34z m802
-130 c22 -33 22 -35 6 -72 -9 -21 -19 -67 -22 -102 l-6 -65 -42 56 c-44 57
-53 91 -32 131 17 32 59 87 67 87 4 0 17 -16 29 -35z m273 -2 c17 -21 36 -55
42 -75 11 -36 9 -40 -32 -93 -24 -31 -46 -57 -49 -59 -3 -2 -7 20 -8 50 -1 29
-11 74 -22 99 l-20 46 22 34 c12 19 25 35 29 35 3 0 20 -17 38 -37z m-1276
-110 c-47 -75 -79 -109 -133 -144 -52 -34 -91 -40 -48 -8 27 21 35 43 18 53
-5 3 -22 -4 -37 -17 l-29 -22 23 32 c12 17 41 46 63 64 40 31 156 98 172 99 4
0 -9 -26 -29 -57z m1060 -193 c-6 -25 -7 -25 -21 9 -20 47 -18 148 4 202 l18
44 3 -115 c1 -63 0 -126 -4 -140z m130 110 c0 -76 -22 -157 -35 -125 -4 11 -8
76 -8 145 l0 125 21 -40 c15 -29 22 -58 22 -105z m1268 113 c10 -9 18 -22 18
-30 0 -16 32 -17 47 -2 14 14 64 15 90 1 44 -24 34 -115 -16 -142 -27 -14
-104 11 -153 50 -21 18 -45 29 -52 27 -8 -3 -15 -27 -18 -56 -10 -105 -118
-150 -118 -50 0 29 37 79 60 79 5 0 10 20 10 45 0 35 6 52 25 70 29 29 79 33
107 8z m-1498 -193 c94 -126 92 -118 61 -211 l-27 -79 -27 19 c-48 35 -111
110 -132 159 -26 60 -49 177 -49 250 l0 56 56 -54 c30 -30 84 -93 118 -140z
m451 -5 c-8 -38 -26 -94 -40 -123 -25 -53 -115 -152 -139 -152 -8 0 -23 33
-36 79 l-22 80 25 44 c33 56 105 146 171 215 l51 53 3 -63 c2 -34 -4 -94 -13
-133z m-1841 17 c58 -117 81 -213 67 -287 -8 -42 -12 -37 -26 33 -5 24 -12 32
-23 30 -18 -4 -19 -11 -7 -73 l8 -40 -23 20 c-41 37 -63 95 -68 179 -5 84 14
220 29 210 5 -3 25 -36 43 -72z m2911 -12 c34 -16 74 -25 127 -28 l76 -4 -13
-46 c-8 -24 -25 -57 -39 -71 -36 -37 -35 -65 2 -57 15 3 43 9 62 12 l35 7 -25
-28 c-48 -52 -106 -85 -151 -85 -23 0 -57 -5 -74 -11 -26 -10 -39 -8 -83 11
-29 12 -52 26 -52 30 0 4 11 12 25 18 34 16 31 34 -9 56 -19 10 -48 33 -66 51
l-31 32 32 7 c50 10 97 51 110 97 7 22 15 38 18 36 3 -2 29 -14 56 -27z
m-2606 -116 c-28 -90 -42 -117 -91 -170 -46 -50 -70 -59 -38 -14 33 47 6 70
-32 28 -13 -15 -9 -2 12 39 28 53 156 200 167 190 2 -2 -6 -35 -18 -73z m1265
4 c29 -114 85 -276 124 -361 l35 -78 -31 -32 c-17 -17 -34 -29 -36 -26 -3 3
-14 50 -25 105 -21 109 -64 253 -105 349 -14 33 -26 65 -26 72 0 13 27 43 38
43 4 0 16 -33 26 -72z m-34 -153 c0 -11 -19 -75 -41 -143 l-41 -124 -33 32
-34 33 21 51 c11 28 37 96 56 150 l36 100 18 -40 c10 -21 18 -48 18 -59z
m-1529 -230 c17 -34 33 -82 35 -106 l5 -44 -20 37 c-24 43 -39 54 -53 40 -6
-6 -2 -24 12 -52 26 -50 21 -60 -16 -31 -67 53 -107 149 -119 282 l-6 74 65
-68 c38 -40 79 -96 97 -132z m224 -22 c-11 -41 -29 -75 -51 -100 l-34 -38 15
39 c19 50 19 56 -4 56 -12 0 -24 -11 -30 -27 -10 -25 -11 -23 -6 18 5 56 41
140 87 206 l33 48 3 -70 c2 -43 -3 -94 -13 -132z m2795 157 c11 -11 20 -33 20
-50 0 -29 2 -30 43 -30 80 0 116 -72 62 -125 -50 -51 -129 -15 -175 80 -12 25
-26 47 -31 50 -4 3 -19 -11 -32 -32 -38 -60 -60 -75 -104 -71 -32 3 -38 7 -41
29 -4 37 27 70 74 78 30 5 40 11 42 28 8 55 102 83 142 43z m-1480 -106 c0
-61 -4 -93 -10 -89 -16 10 -10 185 6 185 2 0 4 -43 4 -96z m-384 -45 c7 -96
-6 -163 -36 -179 -36 -19 -200 28 -200 58 0 9 9 35 19 58 14 31 28 45 59 57
22 9 61 39 88 67 57 61 61 57 70 -61z m887 67 c43 -18 67 -46 74 -88 15 -93
-113 -218 -191 -188 -44 16 -67 122 -47 215 4 21 18 36 46 52 46 26 73 28 118
9z m-636 -94 l62 -57 -24 -52 c-21 -47 -27 -53 -54 -53 -39 0 -48 -16 -23 -43
34 -38 41 -61 52 -173 6 -60 18 -133 26 -163 8 -29 14 -54 12 -56 -36 -30
-135 -47 -187 -30 -12 4 -30 37 -53 98 l-35 92 38 79 c22 44 39 86 39 94 0 9
6 12 15 8 27 -10 27 20 1 83 -28 64 -32 91 -16 91 13 0 70 100 70 123 0 26 10
21 77 -41z m1598 -55 c16 -15 56 -40 87 -55 l58 -26 -37 -38 c-21 -21 -52 -44
-70 -50 -49 -18 -44 -44 10 -53 71 -12 75 -21 18 -40 -35 -11 -65 -15 -89 -10
-20 3 -63 9 -96 12 -53 4 -62 9 -102 50 -24 25 -44 49 -44 54 0 5 13 9 29 9
40 0 46 14 23 48 -19 27 -62 107 -62 116 0 2 14 1 31 -4 46 -14 107 3 143 39
l31 31 20 -27 c11 -16 33 -41 50 -56z m-1181 -104 l38 -31 -56 -45 -55 -45 33
-26 c39 -29 86 -116 86 -158 0 -38 29 -37 55 2 26 40 99 88 153 102 25 6 46
18 50 28 6 16 12 14 58 -16 29 -19 73 -57 98 -84 55 -58 52 -75 -14 -105 -38
-17 -43 -17 -51 -3 -15 27 -77 68 -93 62 -13 -5 -16 -22 -16 -83 0 -112 -3
-117 -62 -125 -42 -6 -59 -15 -103 -57 -62 -59 -82 -97 -65 -128 6 -12 15 -21
20 -21 5 0 30 -27 55 -60 38 -50 51 -60 76 -60 17 0 38 4 48 10 17 8 19 1 25
-82 3 -50 4 -93 2 -95 -2 -2 -41 -8 -87 -13 -58 -7 -119 -6 -199 2 -63 7 -162
13 -220 13 -58 0 -111 4 -117 8 -27 18 -15 93 30 179 42 81 43 82 92 93 90 20
111 41 138 134 19 64 11 86 -34 96 -30 7 -31 9 -24 44 5 20 9 107 10 193 l2
158 -22 -6 c-19 -5 -28 3 -54 45 l-31 51 72 69 72 68 27 -41 c14 -23 43 -56
63 -73z m-1556 -128 c-3 -68 -10 -100 -26 -132 -12 -24 -25 -43 -28 -43 -3 0
-4 19 -2 43 4 56 -20 57 -38 2 l-12 -40 -1 42 c-2 64 18 140 56 223 l36 75 9
-40 c5 -22 8 -80 6 -130z m972 119 c23 -54 24 -55 8 -51 -6 1 -15 -14 -18 -33
-4 -19 -21 -63 -38 -96 -30 -60 -32 -62 -64 -55 -23 5 -34 13 -36 28 -2 16
-12 22 -43 26 -23 3 -43 8 -46 10 -2 3 1 23 8 46 l12 40 51 -40 c43 -34 50
-45 48 -70 -4 -33 12 -39 27 -10 6 10 15 61 21 112 10 82 29 139 46 139 2 0
14 -21 24 -46z m-1261 -76 c60 -60 121 -162 121 -201 0 -15 -7 -10 -30 21 -17
23 -34 42 -39 42 -23 0 -20 -23 9 -65 36 -52 29 -56 -30 -16 -71 48 -127 154
-146 280 l-7 45 31 -22 c17 -12 58 -50 91 -84z m1167 31 c-3 -17 -6 -42 -6
-55 0 -32 -18 -30 -56 7 l-33 32 42 22 c57 30 60 30 53 -6z m716 -41 c-23 -23
-45 -39 -49 -34 -4 4 12 26 35 48 56 52 69 40 14 -14z m-883 -35 c-10 -31 -19
-62 -19 -68 0 -7 21 -15 50 -19 34 -5 50 -11 50 -21 0 -18 31 -35 63 -35 22 0
29 -11 61 -95 20 -52 36 -110 36 -129 0 -30 -4 -36 -38 -49 -21 -9 -54 -18
-73 -22 -34 -6 -35 -5 -63 52 -34 70 -86 142 -103 143 -7 0 -22 -18 -33 -40
l-21 -41 -28 17 c-15 9 -37 24 -50 33 l-22 17 24 65 c48 127 92 194 152 230
16 11 31 19 32 19 1 0 -7 -25 -18 -57z m999 -7 l15 -58 -44 -39 c-50 -43 -59
-47 -59 -21 0 9 -11 35 -23 57 l-23 40 46 42 c25 23 52 41 60 40 8 -1 20 -25
28 -61z m85 -2 c22 -29 21 -30 -15 -39 -24 -6 -27 -4 -37 32 -6 21 -11 41 -11
45 0 14 45 -13 63 -38z m886 -67 c22 -18 31 -55 21 -82 -9 -23 -6 -27 31 -41
70 -29 86 -101 32 -144 -36 -28 -77 -26 -102 6 -22 29 -51 113 -51 150 0 38
-19 38 -60 0 -40 -36 -82 -46 -124 -30 -24 9 -19 52 10 81 22 22 31 24 69 19
38 -6 44 -5 50 14 13 42 86 57 124 27z m-2584 -162 c20 -88 17 -194 -8 -240
l-16 -30 -1 48 c0 41 -3 48 -17 45 -13 -2 -20 -16 -23 -43 l-6 -40 -8 49 c-4
26 -5 71 -1 100 8 66 46 197 55 191 4 -2 15 -38 25 -80z m-331 -48 c83 -48
165 -127 196 -187 l23 -45 -42 38 c-22 20 -46 37 -51 37 -22 0 -8 -36 27 -72
l36 -37 -39 10 c-95 26 -186 132 -244 284 -11 30 -3 27 94 -28z m2636 38 c33
-19 111 -19 136 0 26 20 44 19 44 -2 1 -35 40 -105 90 -157 l51 -54 -43 -26
c-24 -14 -62 -28 -85 -32 -25 -4 -43 -12 -43 -20 0 -7 23 -25 52 -41 l52 -28
-70 -3 c-85 -4 -134 10 -181 51 -36 32 -83 116 -83 149 0 15 4 16 25 6 37 -17
48 -1 36 53 -15 66 -21 119 -13 119 4 -1 18 -7 32 -15z m-342 -72 c3 -44 -4
-63 -54 -162 -31 -61 -60 -111 -65 -111 -12 0 -12 -4 13 65 13 37 23 94 26
148 4 82 6 89 31 102 38 21 46 14 49 -42z m-1460 -29 c2 -1 -11 -30 -28 -64
l-31 -62 -27 23 c-15 13 -31 27 -35 30 -5 3 4 31 19 62 l28 56 35 -21 c20 -12
37 -22 39 -24z m674 -94 l46 -66 -52 -86 c-28 -47 -62 -109 -76 -137 -16 -36
-31 -53 -47 -56 -75 -16 -64 -32 -109 155 l-40 169 26 10 c23 8 28 6 37 -19 6
-17 20 -30 38 -34 36 -9 39 -5 36 52 -2 47 -1 48 41 69 24 11 46 18 49 14 3
-3 26 -35 51 -71z m168 30 c16 -8 17 -15 8 -42 -23 -73 -40 -97 -81 -113 -22
-9 -41 -14 -43 -12 -2 1 7 23 19 48 13 25 31 64 40 87 18 44 26 49 57 32z
m-737 -34 c56 -24 82 -60 79 -113 -1 -25 -4 -48 -6 -51 -3 -2 -27 14 -54 37
l-49 41 -89 -39 -89 -39 -3 25 c-2 14 2 38 8 54 10 23 17 28 35 23 18 -4 24 1
35 26 21 51 68 64 133 36z m280 -119 c10 -51 17 -128 17 -170 0 -65 -3 -78
-20 -87 -28 -15 -130 -23 -165 -12 -38 11 -43 47 -20 142 9 36 17 95 18 131
l2 64 55 11 c101 21 95 26 113 -79z m947 83 c0 -23 -32 -85 -63 -120 -17 -21
-39 -48 -47 -59 -8 -12 -28 -23 -45 -26 -26 -5 -34 -1 -57 32 l-26 38 111 73
c113 73 127 80 127 62z m-2 -143 c16 -18 -21 -77 -48 -77 -25 0 -27 35 -4 68
17 25 36 28 52 9z m-1653 -252 l27 -40 -42 40 c-66 62 -100 121 -100 174 l0
45 44 -90 c24 -49 56 -107 71 -129z m-12 143 c47 -66 79 -126 92 -168 5 -20 1
-16 -23 15 -33 44 -127 215 -118 215 3 0 25 -28 49 -62z m1872 -45 c-51 -95
-131 -223 -140 -223 -8 0 33 98 62 149 35 61 116 172 121 166 2 -2 -17 -44
-43 -92z m91 41 c-9 -79 -47 -153 -113 -218 -31 -31 -60 -56 -64 -56 -5 0 12
29 37 65 44 63 134 233 134 254 0 6 3 11 6 11 4 0 4 -25 0 -56z m-1066 -103
c0 -31 39 -70 81 -81 22 -6 37 -15 34 -21 -4 -5 -12 -37 -19 -71 l-12 -62 -56
105 c-71 132 -76 149 -49 149 14 0 21 -6 21 -19z m-571 -52 c113 -61 179 -108
254 -178 165 -155 81 -116 -175 82 -93 71 -168 131 -168 133 0 9 20 1 89 -37z
m158 -219 c117 -76 114 -88 -10 -50 -84 26 -179 90 -218 146 -28 41 -59 113
-59 137 0 5 41 -29 90 -77 50 -48 138 -118 197 -156z m190 218 c-4 -12 -14
-58 -23 -101 l-17 -78 -39 38 c-39 38 -43 54 -32 126 l7 37 54 0 c52 0 55 -1
50 -22z m490 -32 c2 -2 0 -30 -6 -62 -6 -32 -11 -82 -11 -112 0 -45 -3 -53
-16 -48 -9 3 -38 6 -65 6 l-49 0 0 53 c0 75 26 156 53 167 21 9 84 6 94 -4z
m300 -33 c4 -9 2 -18 -5 -21 -6 -2 -31 -19 -55 -37 -25 -19 -47 -31 -51 -28
-3 4 -6 28 -6 55 l0 48 55 0 c43 0 57 -4 62 -17z m88 -28 c-46 -42 -162 -128
-229 -171 -29 -18 -29 -18 -18 3 18 33 112 109 203 163 45 28 85 50 88 50 3
-1 -16 -21 -44 -45z m82 -17 c-33 -79 -124 -151 -207 -164 l-45 -7 72 51 c39
29 98 76 130 106 32 30 59 53 61 51 2 -1 -3 -18 -11 -37z m-1610 -19 c80 -25
233 -101 233 -115 0 -5 -101 32 -232 86 -71 29 -128 54 -128 56 0 10 37 2 127
-27z m2023 22 c-37 -21 -299 -121 -330 -126 -56 -8 130 79 230 109 90 26 128
33 100 17z m-1899 -148 c90 -30 92 -31 49 -32 -106 -2 -225 39 -295 100 -71
63 -57 67 49 14 56 -28 145 -65 197 -82z m1935 98 c-58 -60 -165 -103 -291
-115 l-60 -6 110 40 c61 22 144 57 185 77 41 21 77 37 79 35 3 -1 -8 -15 -23
-31z m-970 -133 c5 -8 -6 -9 -40 -5 -37 5 -48 3 -53 -9 -8 -21 -3 -23 61 -32
53 -6 56 -8 43 -25 -19 -27 -155 -27 -174 -1 -17 24 -16 49 3 68 19 19 149 23
160 4z m483 -28 c184 -19 161 -31 -49 -26 -203 5 -278 16 -185 27 83 10 128 9
234 -1z m-964 -20 c-36 -14 -383 -45 -371 -32 4 4 44 14 89 24 84 17 320 24
282 8z m-11 -50 c-19 -19 -150 -61 -209 -67 -59 -5 -167 16 -178 35 -3 4 52 8
122 10 99 2 220 16 271 31 2 0 0 -3 -6 -9z m296 -2 c0 -17 -48 -76 -73 -89
-34 -19 -83 -27 -118 -20 l-32 6 61 43 c82 57 162 87 162 60z m299 -3 c23 -8
69 -34 103 -57 l61 -43 -32 -6 c-34 -7 -84 1 -118 19 -43 24 -93 102 -64 102
5 0 27 -7 50 -15z m545 3 c-2 -3 -28 -15 -57 -24 -75 -26 -192 -23 -286 7
l-73 24 210 0 c115 0 208 -3 206 -7z m-774 -32 c0 -2 -10 -29 -21 -60 -18 -45
-26 -56 -45 -56 -12 0 -30 -3 -39 -7 -15 -5 -16 -3 -5 18 30 56 110 132 110
105z m158 -37 c20 -23 43 -53 51 -67 12 -22 11 -24 -4 -18 -9 3 -27 6 -39 6
-19 0 -27 11 -45 56 -24 64 -24 64 -11 64 6 0 27 -19 48 -41z"/>
<path d="M1565 2097 c-24 -18 -11 -41 16 -27 10 6 19 17 19 25 0 19 -11 19
-35 2z"/>
<path d="M1444 2025 c-9 -23 4 -31 27 -17 24 16 49 1 49 -29 0 -10 4 -21 10
-24 14 -9 52 14 44 26 -4 8 -9 8 -17 0 -7 -7 -15 0 -26 22 -12 23 -24 32 -49
35 -23 2 -34 -2 -38 -13z"/>
<path d="M1571 1949 c-13 -11 -22 -22 -19 -25 7 -6 58 17 58 27 0 17 -16 16
-39 -2z"/>
<path d="M2435 2120 c-10 -16 4 -30 31 -30 29 0 31 15 5 30 -24 12 -28 13 -36
0z"/>
<path d="M2532 2082 c-6 -4 -8 -13 -4 -19 10 -16 44 -20 49 -6 5 15 -29 34
-45 25z"/>
<path d="M2485 2055 c-4 -11 -14 -28 -22 -37 -13 -14 -12 -18 7 -28 24 -13 43
-4 20 10 -11 7 -11 11 -1 24 7 8 11 23 8 33 -4 17 -5 16 -12 -2z"/>
<path d="M2420 1950 c0 -6 12 -15 26 -20 33 -13 34 -13 34 4 0 7 -10 16 -22
20 -32 8 -38 7 -38 -4z"/>
<path d="M1742 1667 c-30 -31 -28 -45 6 -43 36 2 102 36 102 53 0 16 -15 17
-41 3 -13 -7 -19 -7 -19 0 0 18 -26 11 -48 -13z"/>
</g>
</svg>
